<svg xmlns="http://www.w3.org/2000/svg" viewBox="0 0 320 70" width="320" height="70">
  <!-- Gear icon -->
  <circle cx="30" cy="35" r="22" fill="#E8192C"/>
  <circle cx="30" cy="35" r="14" fill="#1B1B2F"/>
  <circle cx="30" cy="35" r="6" fill="white"/>
  <!-- Gear teeth -->
  <rect x="27" y="10" width="6" height="8" rx="2" fill="#E8192C"/>
  <rect x="27" y="52" width="6" height="8" rx="2" fill="#E8192C"/>
  <rect x="5" y="32" width="8" height="6" rx="2" fill="#E8192C"/>
  <rect x="47" y="32" width="8" height="6" rx="2" fill="#E8192C"/>
  <rect x="11" y="16" width="6" height="8" rx="2" fill="#E8192C" transform="rotate(45 14 20)"/>
  <rect x="43" y="46" width="6" height="8" rx="2" fill="#E8192C" transform="rotate(45 46 50)"/>
  <rect x="11" y="46" width="6" height="8" rx="2" fill="#E8192C" transform="rotate(-45 14 50)"/>
  <rect x="43" y="16" width="6" height="8" rx="2" fill="#E8192C" transform="rotate(-45 46 20)"/>
  <!-- White text for dark footer -->
  <text x="66" y="26" font-family="Arial Black, Arial, sans-serif" font-size="15" font-weight="900" fill="white" letter-spacing="0.5">AWESOME MSOIL</text>
  <text x="66" y="48" font-family="Arial Black, Arial, sans-serif" font-size="19" font-weight="900" fill="#E8192C" letter-spacing="1">GARAGE</text>
  <text x="66" y="62" font-family="Arial, sans-serif" font-size="9" fill="#aaa" letter-spacing="1">COMPUTERIZED DIAGNOSTICS · RUAKA</text>
</svg>
