<svg xmlns="http://www.w3.org/2000/svg" viewBox="0 0 120 120" width="120" height="120">
  <!-- Outer ring -->
  <circle cx="60" cy="60" r="56" fill="#E8192C"/>
  <circle cx="60" cy="60" r="50" fill="#1B1B2F"/>
  <!-- Inner gear ring -->
  <circle cx="60" cy="60" r="38" fill="none" stroke="#E8192C" stroke-width="3"/>
  <circle cx="60" cy="60" r="20" fill="#E8192C"/>
  <circle cx="60" cy="60" r="12" fill="#1B1B2F"/>
  <!-- Gear teeth on ring -->
  <rect x="57" y="16" width="6" height="10" rx="2" fill="#E8192C"/>
  <rect x="57" y="94" width="6" height="10" rx="2" fill="#E8192C"/>
  <rect x="16" y="57" width="10" height="6" rx="2" fill="#E8192C"/>
  <rect x="94" y="57" width="10" height="6" rx="2" fill="#E8192C"/>
  <rect x="25" y="25" width="6" height="10" rx="2" fill="#E8192C" transform="rotate(45 28 30)"/>
  <rect x="85" y="80" width="6" height="10" rx="2" fill="#E8192C" transform="rotate(45 88 85)"/>
  <rect x="80" y="25" width="6" height="10" rx="2" fill="#E8192C" transform="rotate(-45 83 30)"/>
  <rect x="25" y="80" width="6" height="10" rx="2" fill="#E8192C" transform="rotate(-45 28 85)"/>
  <!-- Text inside circle -->
  <text x="60" y="55" font-family="Arial Black, Arial, sans-serif" font-size="7.5" font-weight="900" fill="white" text-anchor="middle" letter-spacing="0.3">AWESOME</text>
  <text x="60" y="65" font-family="Arial Black, Arial, sans-serif" font-size="6.5" font-weight="900" fill="white" text-anchor="middle" letter-spacing="0.3">MSOIL</text>
  <text x="60" y="74" font-family="Arial Black, Arial, sans-serif" font-size="6" font-weight="900" fill="#E8192C" text-anchor="middle" letter-spacing="0.5">GARAGE</text>
</svg>